<mxfile host="65bd71144e">
    <diagram id="dswvZ1UtxOjx0oFg2ns5" name="Page-1">
        <mxGraphModel dx="2348" dy="268" grid="1" gridSize="10" guides="1" tooltips="1" connect="1" arrows="1" fold="1" page="1" pageScale="1" pageWidth="827" pageHeight="1169" math="0" shadow="0">
            <root>
                <mxCell id="0"/>
                <mxCell id="1" parent="0"/>
                <mxCell id="cg4AusJMjYLe9rkiE9vo-33" style="edgeStyle=orthogonalEdgeStyle;rounded=0;orthogonalLoop=1;jettySize=auto;html=1;exitX=1;exitY=0.5;exitDx=0;exitDy=0;exitPerimeter=0;entryX=1;entryY=0.5;entryDx=0;entryDy=0;fontSize=10;" parent="1" edge="1">
                    <mxGeometry relative="1" as="geometry">
                        <Array as="points">
                            <mxPoint x="370" y="938"/>
                            <mxPoint x="370" y="250"/>
                        </Array>
                        <mxPoint x="180" y="250" as="targetPoint"/>
                    </mxGeometry>
                </mxCell>
                <mxCell id="lUlyVzBeCz4YOQqWq3K9-1" value="Computer" style="swimlane;fontStyle=1;align=center;verticalAlign=top;childLayout=stackLayout;horizontal=1;startSize=26;horizontalStack=0;resizeParent=1;resizeParentMax=0;resizeLast=0;collapsible=1;marginBottom=0;" parent="1" vertex="1">
                    <mxGeometry x="100" y="1098" width="230" height="252" as="geometry">
                        <mxRectangle x="340" y="1380" width="90" height="26" as="alternateBounds"/>
                    </mxGeometry>
                </mxCell>
                <mxCell id="lUlyVzBeCz4YOQqWq3K9-2" value="- _cpu: i8080&#10;- _mmu: MMU&#10;- _bus: Bus" style="text;strokeColor=none;fillColor=none;align=left;verticalAlign=top;spacingLeft=4;spacingRight=4;overflow=hidden;rotatable=0;points=[[0,0.5],[1,0.5]];portConstraint=eastwest;" parent="lUlyVzBeCz4YOQqWq3K9-1" vertex="1">
                    <mxGeometry y="26" width="230" height="54" as="geometry"/>
                </mxCell>
                <mxCell id="lUlyVzBeCz4YOQqWq3K9-3" value="" style="line;strokeWidth=1;fillColor=none;align=left;verticalAlign=middle;spacingTop=-1;spacingLeft=3;spacingRight=3;rotatable=0;labelPosition=right;points=[];portConstraint=eastwest;" parent="lUlyVzBeCz4YOQqWq3K9-1" vertex="1">
                    <mxGeometry y="80" width="230" height="8" as="geometry"/>
                </mxCell>
                <mxCell id="lUlyVzBeCz4YOQqWq3K9-4" value="- _dbgGetMemMap(): string&#10;+ constructor(): void&#10;+ get Bus(): Bus&#10;+ get CPUState(): {}&#10;+ Reset(): void&#10;+ Stop(): void&#10;+ DirectExecOpCode(f, [*]): {}&#10;+ ExecuteNextInstruction(): {}&#10;+ LoadProgram([int], int): int&#10;+ ExecuteProgram(int): void&#10;&#10;&#10;" style="text;strokeColor=none;fillColor=none;align=left;verticalAlign=top;spacingLeft=4;spacingRight=4;overflow=hidden;rotatable=0;points=[[0,0.5],[1,0.5]];portConstraint=eastwest;" parent="lUlyVzBeCz4YOQqWq3K9-1" vertex="1">
                    <mxGeometry y="88" width="230" height="164" as="geometry"/>
                </mxCell>
                <mxCell id="lUlyVzBeCz4YOQqWq3K9-13" value="i8080" style="swimlane;fontStyle=1;align=center;verticalAlign=top;childLayout=stackLayout;horizontal=1;startSize=26;horizontalStack=0;resizeParent=1;resizeParentMax=0;resizeLast=0;collapsible=1;marginBottom=0;" parent="1" vertex="1">
                    <mxGeometry x="380" y="1098" width="510" height="1678" as="geometry"/>
                </mxCell>
                <mxCell id="lUlyVzBeCz4YOQqWq3K9-14" value="- _bus: Bus&#10;- _registers: {}&#10;- _stackPointer: int&#10;- _programCounter: int&#10;- _flags: int&#10;- _clock: int&#10;- _interruptsEnabled: bool&#10;- _interruptWaiting: bool&#10;- _interrupt: { string, [] }&#10;- _halt: bool&#10;- _opcodeTable: []" style="text;strokeColor=none;fillColor=none;align=left;verticalAlign=top;spacingLeft=4;spacingRight=4;overflow=hidden;rotatable=0;points=[[0,0.5],[1,0.5]];portConstraint=eastwest;" parent="lUlyVzBeCz4YOQqWq3K9-13" vertex="1">
                    <mxGeometry y="26" width="510" height="164" as="geometry"/>
                </mxCell>
                <mxCell id="lUlyVzBeCz4YOQqWq3K9-15" value="" style="line;strokeWidth=1;fillColor=none;align=left;verticalAlign=middle;spacingTop=-1;spacingLeft=3;spacingRight=3;rotatable=0;labelPosition=right;points=[];portConstraint=eastwest;" parent="lUlyVzBeCz4YOQqWq3K9-13" vertex="1">
                    <mxGeometry y="190" width="510" height="8" as="geometry"/>
                </mxCell>
                <mxCell id="lUlyVzBeCz4YOQqWq3K9-16" value="- _dbgGetFlags() : string&#10;- _dbgGetRegisters(): string&#10;- _dbgGetStackPointer(): string&#10;- _dbgGetProgramCounter(): string&#10;- _dbgGetClock(): string&#10;- _dbgGetState(): string&#10;- _getRegisterPairWord(char, char): int&#10;- _storeWordInRegisterPair(int, char, char): void&#10;- _parity(int): bool&#10;- _pushByteToStack(int): void&#10;- _popByteFromStack(): int&#10;- _pushWordToStack(int): void&#10;- _popWordFromStack(): int&#10;- _add(int, int, int = 0): int;&#10;- _sub(int, int, int = 0): int&#10;- _setFlagsOnArithmeticOp(int, int, int): void&#10;- _setFlagsOnIncDecOp(int, int, int): void&#10;- _setFlagsOnLogicalOp(int): void&#10;- _peekNextByte(): int&#10;- _getNextByte(): int&#10;- _peekNextWord(): int&#10;- _getNextWord(): int&#10;- _processInterrupt(): void&#10;+ constructor(): void&#10;+ Reset(): void&#10;+ ConnectBus(): void&#10;+ get State(): {}&#10;+ set ProgramCounter(int): void&#10;+ Stop(): void&#10;+ GenerateInterrupt(int, []): void&#10;+ ExecuteNextInstruction(): {}&#10;+ STC(): int&#10;+ CMC(): int&#10;+ INR_R(char): int&#10;+ INR_M(): int&#10;+ DCR_R(char): int&#10;+ DCR_M(): int&#10;+ CMA(): int&#10;+ DAA(): int&#10;+ NOP(): int&#10;+ MOV_R(char, char): int&#10;+ MOV_TO_MEM(char): int&#10;+ MOV_FROM_MEM(char): int&#10;+ STAX(char, char): int&#10;+ LDAX(char, char); int&#10;+ ADD_R(char): int&#10;+ ADD_M(): int&#10;+ ADC_R(char): int&#10;+ ADC_M(): int&#10;+ SUB_R(char): int&#10;+ SUB_M(): int&#10;+ SBB_R(char): int&#10;+ SBB_M(): int&#10;+ ANA_R(char): int&#10;+ ANA_M(): int&#10;+ XBA_R(char): int&#10;+ XBA_M(): int&#10;+ ORA_R(char): int&#10;+ ORA_M(): int&#10;+ CMP_R(char): int&#10;+ CMP_M(): int&#10;+ RLC(): int&#10;+ RRC(): int&#10;+ RAL(): int&#10;+ RAR(): int&#10;+ PUSH_R(char, char): int&#10;+ PUSH_PSW(): int&#10;+ POP_R(char, char): int&#10;+ POP_PSW(): int&#10;+ DAD(char, char): int&#10;+ DAD_SP(): int&#10;+ INX_R(char, char): int&#10;+ INX_SP(): int&#10;+ DCX_R(char, char): int&#10;+ DCX_SP(): int&#10;+ XCHG(): int&#10;+ XTHL(): int&#10;+ SPHL(): int&#10;+ LXI_R(char, char, int): int&#10;+ LXI_SP(int): int&#10;+ MVI_R(char, int): int&#10;+ MVI_TO_MEM(int): int&#10;+ ADI(int): int&#10;+ ACI(int): int&#10;+ SUI(int): int&#10;+ SBI(int): int&#10;+ ANI(int): int&#10;+ XRI(int): int&#10;+ ORI(int): int&#10;+ CPI(int): int&#10;+ STA(int): int&#10;+ LDA(int): int&#10;+ SHLD(int): int&#10;+ LHLD(int): int&#10;+ PCHL(): int&#10;+ JUMP(int, int): int&#10;+ CALL(int, int): int&#10;+ RET(): int&#10;+ RETURN(int): int&#10;+ RST(int): int&#10;+ EI(): int&#10;+ DI(): int&#10;+ IN(int): int&#10;+ OUT(int): int&#10;+ HALT(): int" style="text;strokeColor=none;fillColor=none;align=left;verticalAlign=top;spacingLeft=4;spacingRight=4;overflow=hidden;rotatable=0;points=[[0,0.5],[1,0.5]];portConstraint=eastwest;" parent="lUlyVzBeCz4YOQqWq3K9-13" vertex="1">
                    <mxGeometry y="198" width="510" height="1480" as="geometry"/>
                </mxCell>
                <mxCell id="lUlyVzBeCz4YOQqWq3K9-20" value="FlagManager" style="swimlane;fontStyle=1;align=center;verticalAlign=top;childLayout=stackLayout;horizontal=1;startSize=26;horizontalStack=0;resizeParent=1;resizeParentMax=0;resizeLast=0;collapsible=1;marginBottom=0;" parent="1" vertex="1">
                    <mxGeometry x="950" y="1270" width="190" height="130" as="geometry"/>
                </mxCell>
                <mxCell id="lUlyVzBeCz4YOQqWq3K9-21" value="+ CheckAndSet: CheckAndSet" style="text;strokeColor=none;fillColor=none;align=left;verticalAlign=top;spacingLeft=4;spacingRight=4;overflow=hidden;rotatable=0;points=[[0,0.5],[1,0.5]];portConstraint=eastwest;" parent="lUlyVzBeCz4YOQqWq3K9-20" vertex="1">
                    <mxGeometry y="26" width="190" height="26" as="geometry"/>
                </mxCell>
                <mxCell id="lUlyVzBeCz4YOQqWq3K9-22" value="" style="line;strokeWidth=1;fillColor=none;align=left;verticalAlign=middle;spacingTop=-1;spacingLeft=3;spacingRight=3;rotatable=0;labelPosition=right;points=[];portConstraint=eastwest;" parent="lUlyVzBeCz4YOQqWq3K9-20" vertex="1">
                    <mxGeometry y="52" width="190" height="8" as="geometry"/>
                </mxCell>
                <mxCell id="lUlyVzBeCz4YOQqWq3K9-23" value="+ get FlagType(): int&#10;+ SetFlag(int): void&#10;+ IsSet(int): bool&#10;+ ClearFlag(int): void&#10;" style="text;strokeColor=none;fillColor=none;align=left;verticalAlign=top;spacingLeft=4;spacingRight=4;overflow=hidden;rotatable=0;points=[[0,0.5],[1,0.5]];portConstraint=eastwest;" parent="lUlyVzBeCz4YOQqWq3K9-20" vertex="1">
                    <mxGeometry y="60" width="190" height="70" as="geometry"/>
                </mxCell>
                <mxCell id="lUlyVzBeCz4YOQqWq3K9-24" value="CheckAndSet" style="swimlane;fontStyle=1;align=center;verticalAlign=top;childLayout=stackLayout;horizontal=1;startSize=26;horizontalStack=0;resizeParent=1;resizeParentMax=0;resizeLast=0;collapsible=1;marginBottom=0;" parent="1" vertex="1">
                    <mxGeometry x="950" y="1490" width="190" height="120" as="geometry"/>
                </mxCell>
                <mxCell id="lUlyVzBeCz4YOQqWq3K9-26" value="" style="line;strokeWidth=1;fillColor=none;align=left;verticalAlign=middle;spacingTop=-1;spacingLeft=3;spacingRight=3;rotatable=0;labelPosition=right;points=[];portConstraint=eastwest;" parent="lUlyVzBeCz4YOQqWq3K9-24" vertex="1">
                    <mxGeometry y="26" width="190" height="8" as="geometry"/>
                </mxCell>
                <mxCell id="lUlyVzBeCz4YOQqWq3K9-27" value="+ Carry(int): void&#10;+ Parity(int): void&#10;+ AuxillaryCarry(int, int): void&#10;+ Zero(int): void&#10;+ Sign(int): void" style="text;strokeColor=none;fillColor=none;align=left;verticalAlign=top;spacingLeft=4;spacingRight=4;overflow=hidden;rotatable=0;points=[[0,0.5],[1,0.5]];portConstraint=eastwest;" parent="lUlyVzBeCz4YOQqWq3K9-24" vertex="1">
                    <mxGeometry y="34" width="190" height="86" as="geometry"/>
                </mxCell>
                <mxCell id="lUlyVzBeCz4YOQqWq3K9-28" value="MMU" style="swimlane;fontStyle=1;align=center;verticalAlign=top;childLayout=stackLayout;horizontal=1;startSize=26;horizontalStack=0;resizeParent=1;resizeParentMax=0;resizeLast=0;collapsible=1;marginBottom=0;" parent="1" vertex="1">
                    <mxGeometry x="-220" y="1390" width="270" height="210" as="geometry"/>
                </mxCell>
                <mxCell id="lUlyVzBeCz4YOQqWq3K9-29" value="- _ram: [] : int&#10;- _bus: Bus&#10;- _bytesUsed: int" style="text;strokeColor=none;fillColor=none;align=left;verticalAlign=top;spacingLeft=4;spacingRight=4;overflow=hidden;rotatable=0;points=[[0,0.5],[1,0.5]];portConstraint=eastwest;" parent="lUlyVzBeCz4YOQqWq3K9-28" vertex="1">
                    <mxGeometry y="26" width="270" height="50" as="geometry"/>
                </mxCell>
                <mxCell id="lUlyVzBeCz4YOQqWq3K9-30" value="" style="line;strokeWidth=1;fillColor=none;align=left;verticalAlign=middle;spacingTop=-1;spacingLeft=3;spacingRight=3;rotatable=0;labelPosition=right;points=[];portConstraint=eastwest;" parent="lUlyVzBeCz4YOQqWq3K9-28" vertex="1">
                    <mxGeometry y="76" width="270" height="8" as="geometry"/>
                </mxCell>
                <mxCell id="lUlyVzBeCz4YOQqWq3K9-31" value="+ get BytesUsed(): int&#10;+ get RAM(): [] : int&#10;+ get Total(): int&#10;+ ConnectBus(Bus): void&#10;+ Reset(): void&#10;+ Write(int, int): void&#10;+ Read(int): int&#10;+ GetRAMSlice(int, int): []: int" style="text;strokeColor=none;fillColor=none;align=left;verticalAlign=top;spacingLeft=4;spacingRight=4;overflow=hidden;rotatable=0;points=[[0,0.5],[1,0.5]];portConstraint=eastwest;" parent="lUlyVzBeCz4YOQqWq3K9-28" vertex="1">
                    <mxGeometry y="84" width="270" height="126" as="geometry"/>
                </mxCell>
                <mxCell id="lUlyVzBeCz4YOQqWq3K9-32" value="Bus" style="swimlane;fontStyle=1;align=center;verticalAlign=top;childLayout=stackLayout;horizontal=1;startSize=26;horizontalStack=0;resizeParent=1;resizeParentMax=0;resizeLast=0;collapsible=1;marginBottom=0;" parent="1" vertex="1">
                    <mxGeometry x="-220" y="1098" width="270" height="240" as="geometry"/>
                </mxCell>
                <mxCell id="lUlyVzBeCz4YOQqWq3K9-33" value="- _mmu: MMU&#10;- _cpu: i8080&#10;- _writeDevices: []: Device&#10;- _readDevices: []: Device" style="text;strokeColor=none;fillColor=none;align=left;verticalAlign=top;spacingLeft=4;spacingRight=4;overflow=hidden;rotatable=0;points=[[0,0.5],[1,0.5]];portConstraint=eastwest;" parent="lUlyVzBeCz4YOQqWq3K9-32" vertex="1">
                    <mxGeometry y="26" width="270" height="64" as="geometry"/>
                </mxCell>
                <mxCell id="lUlyVzBeCz4YOQqWq3K9-34" value="" style="line;strokeWidth=1;fillColor=none;align=left;verticalAlign=middle;spacingTop=-1;spacingLeft=3;spacingRight=3;rotatable=0;labelPosition=right;points=[];portConstraint=eastwest;" parent="lUlyVzBeCz4YOQqWq3K9-32" vertex="1">
                    <mxGeometry y="90" width="270" height="8" as="geometry"/>
                </mxCell>
                <mxCell id="lUlyVzBeCz4YOQqWq3K9-35" value="+ GetRAMSlice(int, int): [] : int&#10;+ ConnectDeviceToReadPort(int, int): void&#10;+ ConnectDeviceToWritePort(int, int): void&#10;+ ConnectMMU(MMU): void&#10;+ ConnectCPU(i8080): void&#10;+ WriteRAM(int, int): void&#10;+ ReadRAM(int): int&#10;+ WriteDevice(int, int): void&#10;+ ReadDevice(int): int" style="text;strokeColor=none;fillColor=none;align=left;verticalAlign=top;spacingLeft=4;spacingRight=4;overflow=hidden;rotatable=0;points=[[0,0.5],[1,0.5]];portConstraint=eastwest;" parent="lUlyVzBeCz4YOQqWq3K9-32" vertex="1">
                    <mxGeometry y="98" width="270" height="142" as="geometry"/>
                </mxCell>
                <mxCell id="lUlyVzBeCz4YOQqWq3K9-36" value="Device" style="swimlane;fontStyle=3;align=center;verticalAlign=top;childLayout=stackLayout;horizontal=1;startSize=26;horizontalStack=0;resizeParent=1;resizeParentMax=0;resizeLast=0;collapsible=1;marginBottom=0;" parent="1" vertex="1">
                    <mxGeometry x="-440" y="1470" width="160" height="74" as="geometry"/>
                </mxCell>
                <mxCell id="lUlyVzBeCz4YOQqWq3K9-38" value="" style="line;strokeWidth=1;fillColor=none;align=left;verticalAlign=middle;spacingTop=-1;spacingLeft=3;spacingRight=3;rotatable=0;labelPosition=right;points=[];portConstraint=eastwest;" parent="lUlyVzBeCz4YOQqWq3K9-36" vertex="1">
                    <mxGeometry y="26" width="160" height="8" as="geometry"/>
                </mxCell>
                <mxCell id="lUlyVzBeCz4YOQqWq3K9-39" value="+ Read()&#10;+ Write()" style="text;strokeColor=none;fillColor=none;align=left;verticalAlign=top;spacingLeft=4;spacingRight=4;overflow=hidden;rotatable=0;points=[[0,0.5],[1,0.5]];portConstraint=eastwest;" parent="lUlyVzBeCz4YOQqWq3K9-36" vertex="1">
                    <mxGeometry y="34" width="160" height="40" as="geometry"/>
                </mxCell>
                <mxCell id="lUlyVzBeCz4YOQqWq3K9-40" value="Use" style="endArrow=open;endSize=12;dashed=1;html=1;rounded=0;exitX=1.003;exitY=0.044;exitDx=0;exitDy=0;exitPerimeter=0;entryX=-0.007;entryY=0.431;entryDx=0;entryDy=0;entryPerimeter=0;" parent="1" source="lUlyVzBeCz4YOQqWq3K9-16" target="lUlyVzBeCz4YOQqWq3K9-23" edge="1">
                    <mxGeometry width="160" relative="1" as="geometry">
                        <mxPoint x="1025" y="1570" as="sourcePoint"/>
                        <mxPoint x="940" y="1351" as="targetPoint"/>
                    </mxGeometry>
                </mxCell>
                <mxCell id="lUlyVzBeCz4YOQqWq3K9-42" value="Use" style="endArrow=open;endSize=12;dashed=1;html=1;rounded=0;" parent="1" edge="1">
                    <mxGeometry width="160" relative="1" as="geometry">
                        <mxPoint x="1039" y="1400" as="sourcePoint"/>
                        <mxPoint x="1039" y="1490" as="targetPoint"/>
                    </mxGeometry>
                </mxCell>
                <mxCell id="lUlyVzBeCz4YOQqWq3K9-43" value="Use" style="endArrow=open;endSize=12;dashed=1;html=1;rounded=0;entryX=0.006;entryY=0.411;entryDx=0;entryDy=0;entryPerimeter=0;" parent="1" target="lUlyVzBeCz4YOQqWq3K9-14" edge="1">
                    <mxGeometry width="160" relative="1" as="geometry">
                        <mxPoint x="330" y="1187" as="sourcePoint"/>
                        <mxPoint x="380" y="1212" as="targetPoint"/>
                    </mxGeometry>
                </mxCell>
                <mxCell id="lUlyVzBeCz4YOQqWq3K9-45" value="Use" style="endArrow=open;endSize=12;dashed=1;html=1;rounded=0;exitX=0;exitY=0.5;exitDx=0;exitDy=0;entryX=0.995;entryY=0.414;entryDx=0;entryDy=0;entryPerimeter=0;" parent="1" source="lUlyVzBeCz4YOQqWq3K9-2" target="lUlyVzBeCz4YOQqWq3K9-33" edge="1">
                    <mxGeometry width="160" relative="1" as="geometry">
                        <mxPoint x="270" y="1290" as="sourcePoint"/>
                        <mxPoint x="-40" y="1150" as="targetPoint"/>
                    </mxGeometry>
                </mxCell>
                <mxCell id="lUlyVzBeCz4YOQqWq3K9-46" value="Use" style="endArrow=open;endSize=12;dashed=1;html=1;rounded=0;exitX=0.462;exitY=1.017;exitDx=0;exitDy=0;exitPerimeter=0;entryX=0.461;entryY=0.001;entryDx=0;entryDy=0;entryPerimeter=0;" parent="1" source="lUlyVzBeCz4YOQqWq3K9-35" target="lUlyVzBeCz4YOQqWq3K9-28" edge="1">
                    <mxGeometry width="160" relative="1" as="geometry">
                        <mxPoint x="100" y="1424" as="sourcePoint"/>
                        <mxPoint x="260" y="1424" as="targetPoint"/>
                    </mxGeometry>
                </mxCell>
                <mxCell id="lUlyVzBeCz4YOQqWq3K9-49" value="Use" style="endArrow=open;endSize=12;dashed=1;html=1;rounded=0;entryX=0.5;entryY=0;entryDx=0;entryDy=0;exitX=0.52;exitY=0.002;exitDx=0;exitDy=0;exitPerimeter=0;" parent="1" source="lUlyVzBeCz4YOQqWq3K9-13" target="lUlyVzBeCz4YOQqWq3K9-32" edge="1">
                    <mxGeometry width="160" relative="1" as="geometry">
                        <mxPoint x="174" y="630" as="sourcePoint"/>
                        <mxPoint x="334" y="630" as="targetPoint"/>
                        <Array as="points">
                            <mxPoint x="645" y="1020"/>
                            <mxPoint x="370" y="1020"/>
                            <mxPoint x="-85" y="1020"/>
                        </Array>
                    </mxGeometry>
                </mxCell>
                <mxCell id="lUlyVzBeCz4YOQqWq3K9-50" value="BitShiftDevice" style="swimlane;fontStyle=1;align=center;verticalAlign=top;childLayout=stackLayout;horizontal=1;startSize=26;horizontalStack=0;resizeParent=1;resizeParentMax=0;resizeLast=0;collapsible=1;marginBottom=0;" parent="1" vertex="1">
                    <mxGeometry x="-1080" y="1098" width="290" height="136" as="geometry"/>
                </mxCell>
                <mxCell id="lUlyVzBeCz4YOQqWq3K9-51" value="- _register: int&#10;- _bitShift: int" style="text;strokeColor=none;fillColor=none;align=left;verticalAlign=top;spacingLeft=4;spacingRight=4;overflow=hidden;rotatable=0;points=[[0,0.5],[1,0.5]];portConstraint=eastwest;" parent="lUlyVzBeCz4YOQqWq3K9-50" vertex="1">
                    <mxGeometry y="26" width="290" height="44" as="geometry"/>
                </mxCell>
                <mxCell id="lUlyVzBeCz4YOQqWq3K9-52" value="" style="line;strokeWidth=1;fillColor=none;align=left;verticalAlign=middle;spacingTop=-1;spacingLeft=3;spacingRight=3;rotatable=0;labelPosition=right;points=[];portConstraint=eastwest;" parent="lUlyVzBeCz4YOQqWq3K9-50" vertex="1">
                    <mxGeometry y="70" width="290" height="8" as="geometry"/>
                </mxCell>
                <mxCell id="lUlyVzBeCz4YOQqWq3K9-53" value="- _dbgGetRegisterStr(): string&#10;+ Write(int, int): void&#10;+ Read(int): int" style="text;strokeColor=none;fillColor=none;align=left;verticalAlign=top;spacingLeft=4;spacingRight=4;overflow=hidden;rotatable=0;points=[[0,0.5],[1,0.5]];portConstraint=eastwest;" parent="lUlyVzBeCz4YOQqWq3K9-50" vertex="1">
                    <mxGeometry y="78" width="290" height="58" as="geometry"/>
                </mxCell>
                <mxCell id="lUlyVzBeCz4YOQqWq3K9-54" value="InputDevicePortOne" style="swimlane;fontStyle=1;align=center;verticalAlign=top;childLayout=stackLayout;horizontal=1;startSize=26;horizontalStack=0;resizeParent=1;resizeParentMax=0;resizeLast=0;collapsible=1;marginBottom=0;" parent="1" vertex="1">
                    <mxGeometry x="-1080" y="1270" width="290" height="250" as="geometry"/>
                </mxCell>
                <mxCell id="lUlyVzBeCz4YOQqWq3K9-55" value="- _register: int" style="text;strokeColor=none;fillColor=none;align=left;verticalAlign=top;spacingLeft=4;spacingRight=4;overflow=hidden;rotatable=0;points=[[0,0.5],[1,0.5]];portConstraint=eastwest;" parent="lUlyVzBeCz4YOQqWq3K9-54" vertex="1">
                    <mxGeometry y="26" width="290" height="26" as="geometry"/>
                </mxCell>
                <mxCell id="lUlyVzBeCz4YOQqWq3K9-56" value="" style="line;strokeWidth=1;fillColor=none;align=left;verticalAlign=middle;spacingTop=-1;spacingLeft=3;spacingRight=3;rotatable=0;labelPosition=right;points=[];portConstraint=eastwest;" parent="lUlyVzBeCz4YOQqWq3K9-54" vertex="1">
                    <mxGeometry y="52" width="290" height="8" as="geometry"/>
                </mxCell>
                <mxCell id="lUlyVzBeCz4YOQqWq3K9-57" value="+ DepositCoin(): void&#10;+ PlayerTwoStartButtonDown(): void&#10;+ PlayerTwoStartButtonUp(): void&#10;+ PlayerOneStartButtonDown(): void&#10;+ PlayerOneStartButtonUp(): void&#10;+ PlayerOneFireButtonDown(): void&#10;+ PlayerOneFireButtonUp(): void&#10;+ PlayerOneJoystickLeftDown(): void&#10;+ PlayerOneJoystickLeftUp(): void&#10;+ PlayerOneJoystickRightDown(): void&#10;+ PlayerOneJoystickRightUp(): void&#10;+ Read(): int" style="text;strokeColor=none;fillColor=none;align=left;verticalAlign=top;spacingLeft=4;spacingRight=4;overflow=hidden;rotatable=0;points=[[0,0.5],[1,0.5]];portConstraint=eastwest;" parent="lUlyVzBeCz4YOQqWq3K9-54" vertex="1">
                    <mxGeometry y="60" width="290" height="190" as="geometry"/>
                </mxCell>
                <mxCell id="lUlyVzBeCz4YOQqWq3K9-58" value="InputDevicePortTwo" style="swimlane;fontStyle=1;align=center;verticalAlign=top;childLayout=stackLayout;horizontal=1;startSize=26;horizontalStack=0;resizeParent=1;resizeParentMax=0;resizeLast=0;collapsible=1;marginBottom=0;" parent="1" vertex="1">
                    <mxGeometry x="-1080" y="1564" width="290" height="190" as="geometry"/>
                </mxCell>
                <mxCell id="lUlyVzBeCz4YOQqWq3K9-59" value="- _register: int" style="text;strokeColor=none;fillColor=none;align=left;verticalAlign=top;spacingLeft=4;spacingRight=4;overflow=hidden;rotatable=0;points=[[0,0.5],[1,0.5]];portConstraint=eastwest;" parent="lUlyVzBeCz4YOQqWq3K9-58" vertex="1">
                    <mxGeometry y="26" width="290" height="26" as="geometry"/>
                </mxCell>
                <mxCell id="lUlyVzBeCz4YOQqWq3K9-60" value="" style="line;strokeWidth=1;fillColor=none;align=left;verticalAlign=middle;spacingTop=-1;spacingLeft=3;spacingRight=3;rotatable=0;labelPosition=right;points=[];portConstraint=eastwest;" parent="lUlyVzBeCz4YOQqWq3K9-58" vertex="1">
                    <mxGeometry y="52" width="290" height="8" as="geometry"/>
                </mxCell>
                <mxCell id="lUlyVzBeCz4YOQqWq3K9-61" value="+ SetNumberOfLivesDipSwitch(int): void&#10;+ TiltAlarm(): void&#10;+ BonusLife(int): void&#10;+ PlayerTwoFire(): void&#10;+ PlayerTwoJoystickLeft(): void&#10;+ PlayerTwoJoystickRight(): void&#10;+ CoinInfo(bool): void&#10;+ Read(): int;" style="text;strokeColor=none;fillColor=none;align=left;verticalAlign=top;spacingLeft=4;spacingRight=4;overflow=hidden;rotatable=0;points=[[0,0.5],[1,0.5]];portConstraint=eastwest;" parent="lUlyVzBeCz4YOQqWq3K9-58" vertex="1">
                    <mxGeometry y="60" width="290" height="130" as="geometry"/>
                </mxCell>
                <mxCell id="lUlyVzBeCz4YOQqWq3K9-62" value="InvadersComputer" style="swimlane;fontStyle=1;align=center;verticalAlign=top;childLayout=stackLayout;horizontal=1;startSize=26;horizontalStack=0;resizeParent=1;resizeParentMax=0;resizeLast=0;collapsible=1;marginBottom=0;" parent="1" vertex="1">
                    <mxGeometry x="-680" y="1100" width="283" height="220" as="geometry"/>
                </mxCell>
                <mxCell id="lUlyVzBeCz4YOQqWq3K9-63" value="- _bitShiftDevice: BitShiftDevice&#10;- _inputDevicePortOne: InputDevicePortOne&#10;- _inputDevicePortTwo: InputDevicePortTwo&#10;- _videoRAMStart: int&#10;- _videoRAMEnd: int" style="text;strokeColor=none;fillColor=none;align=left;verticalAlign=top;spacingLeft=4;spacingRight=4;overflow=hidden;rotatable=0;points=[[0,0.5],[1,0.5]];portConstraint=eastwest;" parent="lUlyVzBeCz4YOQqWq3K9-62" vertex="1">
                    <mxGeometry y="26" width="283" height="84" as="geometry"/>
                </mxCell>
                <mxCell id="lUlyVzBeCz4YOQqWq3K9-64" value="" style="line;strokeWidth=1;fillColor=none;align=left;verticalAlign=middle;spacingTop=-1;spacingLeft=3;spacingRight=3;rotatable=0;labelPosition=right;points=[];portConstraint=eastwest;" parent="lUlyVzBeCz4YOQqWq3K9-62" vertex="1">
                    <mxGeometry y="110" width="283" height="8" as="geometry"/>
                </mxCell>
                <mxCell id="lUlyVzBeCz4YOQqWq3K9-65" value="+ get InputDevicePortOne(): InputDevicePortOne&#10;+ get InputDevicePortTwo(): InputDevicePortTwo&#10;+ LoadProgram(): void&#10;+ GetVideoBuffer(): [] : int&#10;+ GenerateVBlank(): void&#10;+ GenerateHalfBlank(): void" style="text;strokeColor=none;fillColor=none;align=left;verticalAlign=top;spacingLeft=4;spacingRight=4;overflow=hidden;rotatable=0;points=[[0,0.5],[1,0.5]];portConstraint=eastwest;" parent="lUlyVzBeCz4YOQqWq3K9-62" vertex="1">
                    <mxGeometry y="118" width="283" height="102" as="geometry"/>
                </mxCell>
                <mxCell id="lUlyVzBeCz4YOQqWq3K9-71" value="" style="endArrow=block;dashed=1;endFill=0;endSize=12;html=1;rounded=0;exitX=0.5;exitY=0;exitDx=0;exitDy=0;entryX=0.5;entryY=0;entryDx=0;entryDy=0;" parent="1" source="lUlyVzBeCz4YOQqWq3K9-62" target="lUlyVzBeCz4YOQqWq3K9-1" edge="1">
                    <mxGeometry width="160" relative="1" as="geometry">
                        <mxPoint x="-160" y="1110" as="sourcePoint"/>
                        <mxPoint y="1110" as="targetPoint"/>
                        <Array as="points">
                            <mxPoint x="-538" y="980"/>
                            <mxPoint x="-30" y="980"/>
                            <mxPoint x="215" y="980"/>
                        </Array>
                    </mxGeometry>
                </mxCell>
                <mxCell id="lUlyVzBeCz4YOQqWq3K9-72" value="Use" style="endArrow=open;endSize=12;dashed=1;html=1;rounded=0;entryX=1;entryY=0.5;entryDx=0;entryDy=0;exitX=-0.005;exitY=0.243;exitDx=0;exitDy=0;exitPerimeter=0;" parent="1" source="lUlyVzBeCz4YOQqWq3K9-63" target="lUlyVzBeCz4YOQqWq3K9-51" edge="1">
                    <mxGeometry width="160" relative="1" as="geometry">
                        <mxPoint x="-678" y="1146" as="sourcePoint"/>
                        <mxPoint x="30" y="1320" as="targetPoint"/>
                    </mxGeometry>
                </mxCell>
                <mxCell id="lUlyVzBeCz4YOQqWq3K9-73" value="Use" style="endArrow=open;endSize=12;dashed=1;html=1;rounded=0;exitX=-0.014;exitY=0.765;exitDx=0;exitDy=0;exitPerimeter=0;" parent="1" source="lUlyVzBeCz4YOQqWq3K9-65" edge="1">
                    <mxGeometry width="160" relative="1" as="geometry">
                        <mxPoint x="-380" y="1360" as="sourcePoint"/>
                        <mxPoint x="-790" y="1296" as="targetPoint"/>
                    </mxGeometry>
                </mxCell>
                <mxCell id="lUlyVzBeCz4YOQqWq3K9-74" value="Use" style="endArrow=open;endSize=12;dashed=1;html=1;rounded=0;exitX=0.413;exitY=1.008;exitDx=0;exitDy=0;exitPerimeter=0;entryX=0.999;entryY=0.076;entryDx=0;entryDy=0;entryPerimeter=0;" parent="1" source="lUlyVzBeCz4YOQqWq3K9-65" target="lUlyVzBeCz4YOQqWq3K9-61" edge="1">
                    <mxGeometry width="160" relative="1" as="geometry">
                        <mxPoint x="-380" y="1360" as="sourcePoint"/>
                        <mxPoint x="-220" y="1360" as="targetPoint"/>
                        <Array as="points">
                            <mxPoint x="-560" y="1634"/>
                        </Array>
                    </mxGeometry>
                </mxCell>
                <mxCell id="lUlyVzBeCz4YOQqWq3K9-75" value="" style="endArrow=block;dashed=1;endFill=0;endSize=12;html=1;rounded=0;entryX=0.321;entryY=1.02;entryDx=0;entryDy=0;entryPerimeter=0;exitX=0.43;exitY=1.015;exitDx=0;exitDy=0;exitPerimeter=0;" parent="1" source="lUlyVzBeCz4YOQqWq3K9-61" target="lUlyVzBeCz4YOQqWq3K9-39" edge="1">
                    <mxGeometry width="160" relative="1" as="geometry">
                        <mxPoint x="-955" y="1760" as="sourcePoint"/>
                        <mxPoint x="-388" y="1570" as="targetPoint"/>
                        <Array as="points">
                            <mxPoint x="-956" y="1800"/>
                            <mxPoint x="-388" y="1800"/>
                        </Array>
                    </mxGeometry>
                </mxCell>
                <mxCell id="lUlyVzBeCz4YOQqWq3K9-76" value="" style="endArrow=block;dashed=1;endFill=0;endSize=12;html=1;rounded=0;exitX=1.022;exitY=0.841;exitDx=0;exitDy=0;exitPerimeter=0;entryX=0;entryY=0.25;entryDx=0;entryDy=0;" parent="1" source="lUlyVzBeCz4YOQqWq3K9-57" target="lUlyVzBeCz4YOQqWq3K9-36" edge="1">
                    <mxGeometry width="160" relative="1" as="geometry">
                        <mxPoint x="-778.2599999999998" y="1690.1599999999999" as="sourcePoint"/>
                        <mxPoint x="-280" y="1570" as="targetPoint"/>
                    </mxGeometry>
                </mxCell>
                <mxCell id="lUlyVzBeCz4YOQqWq3K9-77" value="" style="endArrow=block;dashed=1;endFill=0;endSize=12;html=1;rounded=0;exitX=0;exitY=0.5;exitDx=0;exitDy=0;entryX=0.562;entryY=0.983;entryDx=0;entryDy=0;entryPerimeter=0;" parent="1" source="lUlyVzBeCz4YOQqWq3K9-51" target="lUlyVzBeCz4YOQqWq3K9-39" edge="1">
                    <mxGeometry width="160" relative="1" as="geometry">
                        <mxPoint x="-768.2599999999998" y="1700.1599999999999" as="sourcePoint"/>
                        <mxPoint x="-350" y="1570" as="targetPoint"/>
                        <Array as="points">
                            <mxPoint x="-1120" y="1146"/>
                            <mxPoint x="-1120" y="1820"/>
                            <mxPoint x="-350" y="1820"/>
                        </Array>
                    </mxGeometry>
                </mxCell>
                <mxCell id="lUlyVzBeCz4YOQqWq3K9-78" value="Use" style="endArrow=open;endSize=12;dashed=1;html=1;rounded=0;exitX=0;exitY=0.5;exitDx=0;exitDy=0;entryX=0.5;entryY=0;entryDx=0;entryDy=0;" parent="1" source="lUlyVzBeCz4YOQqWq3K9-35" target="lUlyVzBeCz4YOQqWq3K9-36" edge="1">
                    <mxGeometry width="160" relative="1" as="geometry">
                        <mxPoint x="-80" y="1330" as="sourcePoint"/>
                        <mxPoint x="80" y="1330" as="targetPoint"/>
                        <Array as="points">
                            <mxPoint x="-360" y="1267"/>
                        </Array>
                    </mxGeometry>
                </mxCell>
            </root>
        </mxGraphModel>
    </diagram>
</mxfile>